<?xml version="1.0" encoding="UTF-8" standalone="no"?>
<!-- Created with Inkscape (http://www.inkscape.org/) -->

<svg
   xmlns:dc="http://purl.org/dc/elements/1.1/"
   xmlns:cc="http://creativecommons.org/ns#"
   xmlns:rdf="http://www.w3.org/1999/02/22-rdf-syntax-ns#"
   xmlns:svg="http://www.w3.org/2000/svg"
   xmlns="http://www.w3.org/2000/svg"
   xmlns:xlink="http://www.w3.org/1999/xlink"
   xmlns:sodipodi="http://sodipodi.sourceforge.net/DTD/sodipodi-0.dtd"
   xmlns:inkscape="http://www.inkscape.org/namespaces/inkscape"
   width="512"
   height="512"
   viewBox="0 0 135.46667 135.46667"
   version="1.1"
   id="svg3735"
   inkscape:version="0.92.4 (unknown)"
   sodipodi:docname="icon.svg">
  <defs
     id="defs3729">
    <linearGradient
       id="linearGradient4537-3">
      <stop
         style="stop-color:#a70000;stop-opacity:1;"
         offset="0"
         id="stop4533" />
      <stop
         id="stop4678"
         offset="0.8256588"
         style="stop-color:#c80000;stop-opacity:0.49803922;" />
      <stop
         style="stop-color:#c80000;stop-opacity:0;"
         offset="1"
         id="stop4535" />
    </linearGradient>
    <linearGradient
       inkscape:collect="always"
       xlink:href="#linearGradient4537-3"
       id="linearGradient4671"
       gradientUnits="userSpaceOnUse"
       x1="97.822403"
       y1="112.55795"
       x2="92.677605"
       y2="-149.00159" />
  </defs>
  <sodipodi:namedview
     id="base"
     pagecolor="#ffffff"
     bordercolor="#666666"
     borderopacity="1.0"
     inkscape:pageopacity="0.0"
     inkscape:pageshadow="2"
     inkscape:zoom="0.35"
     inkscape:cx="-155.71428"
     inkscape:cy="534.28572"
     inkscape:document-units="mm"
     inkscape:current-layer="layer1"
     showgrid="false"
     inkscape:window-width="1280"
     inkscape:window-height="987"
     inkscape:window-x="3840"
     inkscape:window-y="0"
     inkscape:window-maximized="1"
     units="px"
     width="512px" />
  <metadata
     id="metadata3732">
    <rdf:RDF>
      <cc:Work
         rdf:about="">
        <dc:format>image/svg+xml</dc:format>
        <dc:type
           rdf:resource="http://purl.org/dc/dcmitype/StillImage" />
        <dc:title />
      </cc:Work>
    </rdf:RDF>
  </metadata>
  <g
     inkscape:label="Layer 1"
     inkscape:groupmode="layer"
     id="layer1"
     transform="translate(0,-161.53333)">
    <g
       id="g3863"
       transform="translate(-16.9355,140.88792)"
       style="fill:#c80000;fill-opacity:1">
      <path
         inkscape:connector-curvature="0"
         id="path3748"
         d="m 28.04583,155.67769 c -5.48015,-1.18124 -9.53707,-5.29091 -10.71585,-10.85517 -0.33295,-1.57164 -0.3881,-9.4886 -0.39205,-56.278088 -0.005,-60.102679 -0.10201,-56.556702 1.64706,-60.247694 1.09365,-2.307894 3.71337,-4.927609 6.02126,-6.021263 3.68982,-1.748512 0.16762,-1.651652 60.06042,-1.651652 59.89279,0 56.37059,-0.09686 60.06041,1.651652 2.30789,1.093654 4.92761,3.713369 6.02126,6.021263 1.74907,3.690992 1.65213,0.145015 1.64706,60.247694 -0.004,46.870878 -0.0587,54.706948 -0.39345,56.301248 -1.17467,5.59492 -5.24424,9.65635 -10.86992,10.84814 -2.68084,0.56794 -110.44786,0.55257 -113.0862,-0.0161 z m 79.375,-25.91326 v -3.83645 H 82.81458 58.20833 V 89.944642 53.961315 h -3.83645 -3.83646 v 39.819787 39.819788 h 28.4427 28.44271 z M 118.79791,91.332252 V 60.440694 l -8.93285,-8.929959 -8.93285,-8.929949 -19.576,0.0679 -19.576,0.0679 -0.0901,1.5875 c -0.0495,0.87313 -0.005,18.762268 0.0987,39.753646 l 0.18869,38.166138 h 28.41021 28.4102 z M 92.33958,59.782155 v -9.26042 h 1.71979 1.71979 v 7.54062 7.540629 h 7.60677 7.60677 v 1.71979 1.71979 h -9.32656 -9.32656 z"
         style="fill:url(#linearGradient4671);stroke-width:0.26458332;fill-opacity:1" />
    </g>
  </g>
</svg>
